<svg id="svg" version="1.1" xmlns="http://www.w3.org/2000/svg" xmlns:xlink="http://www.w3.org/1999/xlink" width="400" height="389.7435897435897" viewBox="0, 0, 400,389.7435897435897"><g id="svgg"><path id="path0" d="M208.969 16.865 C 208.434 17.560,207.107 19.094,206.021 20.273 C 204.935 21.452,200.117 26.891,195.314 32.359 C 190.511 37.827,186.482 42.388,186.361 42.495 C 186.240 42.602,184.478 44.619,182.446 46.976 C 180.415 49.334,177.875 52.237,176.803 53.427 C 175.731 54.617,173.801 56.803,172.515 58.284 C 170.172 60.980,166.033 65.677,162.378 69.787 C 161.306 70.992,158.850 73.799,156.920 76.023 C 154.990 78.248,151.657 82.028,149.513 84.423 C 147.368 86.819,143.438 91.266,140.778 94.305 C 138.119 97.344,135.750 99.766,135.515 99.687 C 135.212 99.586,135.088 93.637,135.088 79.304 L 135.088 59.064 134.055 56.862 C 130.863 50.054,127.654 48.998,110.720 49.189 L 99.220 49.318 97.041 50.388 C 94.267 51.750,91.824 54.204,90.608 56.849 L 89.655 58.922 89.631 104.051 C 89.618 128.872,89.725 149.807,89.869 150.572 C 90.124 151.932,89.987 152.126,84.146 158.731 C 80.855 162.452,76.325 167.602,74.079 170.175 C 71.833 172.749,69.816 175.049,69.598 175.288 C 69.379 175.526,68.236 176.836,67.057 178.198 C 64.384 181.286,54.536 192.440,49.220 198.399 C 47.022 200.863,45.224 203.108,45.224 203.389 C 45.224 204.450,72.356 204.096,73.412 203.021 C 73.887 202.539,76.553 199.513,79.337 196.296 C 86.194 188.375,92.992 180.604,94.515 178.947 C 95.205 178.197,97.405 175.672,99.406 173.336 C 101.406 171.001,108.060 163.355,114.192 156.345 C 120.324 149.336,126.306 142.493,127.485 141.140 C 128.665 139.787,129.954 138.311,130.351 137.859 C 130.747 137.407,131.887 136.075,132.885 134.899 C 133.882 133.723,135.584 131.793,136.667 130.610 C 137.750 129.428,139.135 127.846,139.745 127.096 C 140.754 125.852,142.246 124.154,147.953 117.751 C 149.025 116.549,152.622 112.428,155.945 108.596 C 159.269 104.763,162.339 101.238,162.768 100.762 C 163.197 100.287,165.039 98.177,166.862 96.074 C 170.691 91.655,176.157 85.409,177.927 83.431 C 178.599 82.680,180.813 80.136,182.849 77.778 C 184.884 75.419,186.641 73.402,186.753 73.294 C 187.146 72.917,197.887 60.643,200.375 57.727 C 201.761 56.104,203.081 54.584,203.308 54.349 C 203.535 54.115,205.190 52.229,206.985 50.158 C 210.710 45.861,210.615 45.903,212.237 47.851 C 212.904 48.653,214.271 50.192,215.274 51.271 C 216.277 52.350,217.681 53.958,218.393 54.846 C 219.105 55.733,220.828 57.755,222.222 59.340 C 223.616 60.925,229.734 67.915,235.817 74.873 C 241.900 81.831,247.974 88.752,249.315 90.253 C 250.655 91.754,252.254 93.596,252.868 94.347 C 253.481 95.097,254.074 95.799,254.185 95.906 C 254.411 96.125,258.455 100.741,260.477 103.088 C 261.201 103.929,262.583 105.520,263.548 106.624 C 264.513 107.728,265.826 109.233,266.466 109.968 C 267.106 110.704,269.035 112.900,270.754 114.849 C 272.473 116.798,275.393 120.131,277.242 122.256 C 280.872 126.426,288.788 135.475,292.390 139.571 C 293.616 140.965,296.596 144.386,299.013 147.173 C 305.386 154.525,307.358 156.791,307.801 157.272 C 308.017 157.507,310.114 159.893,312.461 162.573 C 314.807 165.253,316.826 167.534,316.947 167.641 C 317.067 167.749,318.655 169.586,320.474 171.724 C 322.293 173.862,326.501 178.698,329.825 182.470 C 333.148 186.242,338.720 192.606,342.207 196.613 L 348.546 203.899 362.164 203.899 C 370.211 203.899,375.875 203.749,376.008 203.533 C 376.132 203.332,374.930 201.710,373.337 199.927 C 371.744 198.145,367.505 193.353,363.918 189.279 C 360.331 185.205,354.988 179.152,352.046 175.828 C 349.104 172.505,344.108 166.803,340.945 163.158 C 337.782 159.513,334.468 155.739,333.581 154.772 C 332.694 153.806,327.591 148.016,322.241 141.907 C 316.890 135.798,311.101 129.209,309.375 127.266 C 307.650 125.323,305.726 123.130,305.101 122.393 C 304.476 121.656,303.248 120.255,302.372 119.281 C 300.706 117.427,300.054 116.681,295.914 111.891 C 294.524 110.283,292.506 107.998,291.430 106.814 C 290.354 105.630,287.105 101.951,284.211 98.638 C 281.316 95.326,277.281 90.750,275.244 88.470 C 273.207 86.189,270.049 82.595,268.226 80.482 C 266.404 78.369,263.421 74.953,261.598 72.891 C 259.776 70.829,257.762 68.541,257.124 67.807 C 256.485 67.073,254.550 64.893,252.823 62.963 C 251.096 61.033,248.032 57.524,246.015 55.166 C 243.997 52.807,241.458 49.912,240.374 48.731 C 239.289 47.551,237.261 45.275,235.867 43.674 C 234.474 42.072,231.839 39.091,230.013 37.048 C 228.187 35.005,225.648 32.105,224.371 30.604 C 223.095 29.103,221.256 26.995,220.284 25.918 C 218.566 24.013,215.048 20.014,212.490 17.057 C 210.943 15.268,210.228 15.229,208.969 16.865 M205.019 78.460 C 202.163 81.730,198.330 86.081,196.502 88.129 C 194.673 90.177,192.037 93.160,190.644 94.757 C 189.250 96.354,187.312 98.538,186.336 99.610 C 185.360 100.682,180.888 105.770,176.397 110.916 C 171.907 116.062,168.141 120.361,168.029 120.468 C 167.916 120.575,166.160 122.581,164.127 124.926 C 162.093 127.270,159.552 130.170,158.480 131.369 C 156.712 133.346,154.281 136.091,149.318 141.711 C 148.353 142.804,146.495 144.919,145.189 146.410 C 138.415 154.148,136.130 156.754,134.089 159.064 C 132.858 160.458,129.620 164.142,126.893 167.251 C 116.362 179.261,111.623 184.648,109.747 186.742 C 108.674 187.938,106.813 190.051,105.611 191.437 C 104.408 192.823,101.513 196.125,99.178 198.774 C 96.843 201.424,93.841 204.845,92.508 206.377 L 90.084 209.162 90.071 282.312 L 90.058 355.462 94.055 355.690 C 99.106 355.977,167.114 355.823,167.414 355.523 C 167.536 355.401,167.640 332.483,167.644 304.594 C 167.651 262.626,167.743 253.813,168.176 253.453 C 168.556 253.137,180.318 253.045,210.958 253.117 L 253.216 253.216 253.411 304.288 L 253.606 355.361 261.598 355.590 C 278.058 356.062,330.606 355.794,330.951 355.236 C 331.507 354.336,331.443 209.767,330.887 208.984 C 330.397 208.297,326.986 204.340,325.022 202.182 C 324.417 201.518,322.487 199.330,320.733 197.319 C 318.979 195.308,314.561 190.288,310.916 186.163 C 307.271 182.037,302.797 176.931,300.975 174.816 C 299.152 172.701,296.696 169.907,295.517 168.609 C 294.337 167.310,292.407 165.124,291.228 163.750 C 290.049 162.377,287.440 159.451,285.431 157.248 C 283.423 155.045,281.374 152.693,280.878 152.022 C 280.383 151.351,279.307 150.073,278.486 149.182 C 277.665 148.292,275.252 145.546,273.124 143.080 C 270.995 140.614,269.066 138.421,268.837 138.207 C 268.465 137.858,264.961 133.901,261.793 130.253 C 261.150 129.512,260.361 128.624,260.039 128.280 C 259.717 127.935,258.489 126.522,257.310 125.139 C 256.131 123.756,253.499 120.757,251.462 118.474 C 249.425 116.191,246.179 112.522,244.250 110.319 C 239.166 104.516,234.171 98.861,233.931 98.635 C 233.817 98.528,232.761 97.300,231.584 95.906 C 230.408 94.513,229.268 93.179,229.050 92.942 C 228.833 92.706,226.901 90.527,224.756 88.102 C 222.612 85.676,219.805 82.526,218.519 81.102 C 217.232 79.678,215.044 77.163,213.657 75.514 C 210.465 71.718,211.095 71.504,205.019 78.460 M209.891 171.637 C 210.195 172.772,210.195 177.326,209.891 178.460 C 209.658 179.329,209.590 179.337,202.536 179.337 C 197.058 179.337,195.317 179.458,194.983 179.860 C 194.679 180.226,194.519 186.466,194.448 200.620 L 194.347 220.858 189.628 220.967 C 186.003 221.050,184.807 220.952,184.466 220.541 C 184.150 220.160,183.994 214.188,183.922 199.769 L 183.821 179.532 176.608 179.337 L 169.396 179.142 169.283 175.468 C 169.221 173.447,169.259 171.561,169.368 171.277 C 169.529 170.857,173.330 170.760,189.611 170.760 L 209.656 170.760 209.891 171.637 M253.216 175.049 L 253.216 179.142 246.142 179.248 C 240.865 179.328,238.959 179.485,238.641 179.869 C 238.346 180.223,238.182 186.672,238.113 200.620 L 238.012 220.858 233.723 220.971 C 231.365 221.033,229.040 220.986,228.558 220.866 L 227.680 220.648 227.680 200.229 C 227.680 181.970,227.615 179.785,227.064 179.574 C 226.724 179.444,223.410 179.337,219.698 179.337 C 211.924 179.337,212.476 179.655,212.476 175.186 C 212.476 170.264,210.207 170.738,233.251 170.854 L 253.216 170.955 253.216 175.049 " stroke="none" fill="#050505" fill-rule="evenodd"></path><path id="path1" d="M0.000 194.932 L 0.000 389.864 200.000 389.864 L 400.000 389.864 400.000 194.932 L 400.000 0.000 200.000 0.000 L 0.000 0.000 0.000 194.932 M212.490 17.057 C 215.048 20.014,218.566 24.013,220.284 25.918 C 221.256 26.995,223.095 29.103,224.371 30.604 C 225.648 32.105,228.187 35.005,230.013 37.048 C 231.839 39.091,234.474 42.072,235.867 43.674 C 237.261 45.275,239.289 47.551,240.374 48.731 C 241.458 49.912,243.997 52.807,246.015 55.166 C 248.032 57.524,251.096 61.033,252.823 62.963 C 254.550 64.893,256.485 67.073,257.124 67.807 C 257.762 68.541,259.776 70.829,261.598 72.891 C 263.421 74.953,266.404 78.369,268.226 80.482 C 270.049 82.595,273.207 86.189,275.244 88.470 C 277.281 90.750,281.316 95.326,284.211 98.638 C 287.105 101.951,290.354 105.630,291.430 106.814 C 292.506 107.998,294.524 110.283,295.914 111.891 C 300.054 116.681,300.706 117.427,302.372 119.281 C 303.248 120.255,304.476 121.656,305.101 122.393 C 305.726 123.130,307.650 125.323,309.375 127.266 C 311.101 129.209,316.890 135.798,322.241 141.907 C 327.591 148.016,332.694 153.806,333.581 154.772 C 334.468 155.739,337.782 159.513,340.945 163.158 C 344.108 166.803,349.104 172.505,352.046 175.828 C 354.988 179.152,360.331 185.205,363.918 189.279 C 367.505 193.353,371.744 198.145,373.337 199.927 C 374.930 201.710,376.132 203.332,376.008 203.533 C 375.875 203.749,370.211 203.899,362.164 203.899 L 348.546 203.899 342.207 196.613 C 338.720 192.606,333.148 186.242,329.825 182.470 C 326.501 178.698,322.293 173.862,320.474 171.724 C 318.655 169.586,317.067 167.749,316.947 167.641 C 316.826 167.534,314.807 165.253,312.461 162.573 C 310.114 159.893,308.017 157.507,307.801 157.272 C 307.358 156.791,305.386 154.525,299.013 147.173 C 296.596 144.386,293.616 140.965,292.390 139.571 C 288.788 135.475,280.872 126.426,277.242 122.256 C 275.393 120.131,272.473 116.798,270.754 114.849 C 269.035 112.900,267.106 110.704,266.466 109.968 C 265.826 109.233,264.513 107.728,263.548 106.624 C 262.583 105.520,261.201 103.929,260.477 103.088 C 258.455 100.741,254.411 96.125,254.185 95.906 C 254.074 95.799,253.481 95.097,252.868 94.347 C 252.254 93.596,250.655 91.754,249.315 90.253 C 247.974 88.752,241.900 81.831,235.817 74.873 C 229.734 67.915,223.616 60.925,222.222 59.340 C 220.828 57.755,219.105 55.733,218.393 54.846 C 217.681 53.958,216.277 52.350,215.274 51.271 C 214.271 50.192,212.904 48.653,212.237 47.851 C 210.615 45.903,210.710 45.861,206.985 50.158 C 205.190 52.229,203.535 54.115,203.308 54.349 C 203.081 54.584,201.761 56.104,200.375 57.727 C 197.887 60.643,187.146 72.917,186.753 73.294 C 186.641 73.402,184.884 75.419,182.849 77.778 C 180.813 80.136,178.599 82.680,177.927 83.431 C 176.157 85.409,170.691 91.655,166.862 96.074 C 165.039 98.177,163.197 100.287,162.768 100.762 C 162.339 101.238,159.269 104.763,155.945 108.596 C 152.622 112.428,149.025 116.549,147.953 117.751 C 142.246 124.154,140.754 125.852,139.745 127.096 C 139.135 127.846,137.750 129.428,136.667 130.610 C 135.584 131.793,133.882 133.723,132.885 134.899 C 131.887 136.075,130.747 137.407,130.351 137.859 C 129.954 138.311,128.665 139.787,127.485 141.140 C 126.306 142.493,120.324 149.336,114.192 156.345 C 108.060 163.355,101.406 171.001,99.406 173.336 C 97.405 175.672,95.205 178.197,94.515 178.947 C 92.992 180.604,86.194 188.375,79.337 196.296 C 76.553 199.513,73.887 202.539,73.412 203.021 C 72.356 204.096,45.224 204.450,45.224 203.389 C 45.224 203.108,47.022 200.863,49.220 198.399 C 54.536 192.440,64.384 181.286,67.057 178.198 C 68.236 176.836,69.379 175.526,69.598 175.288 C 69.816 175.049,71.833 172.749,74.079 170.175 C 76.325 167.602,80.855 162.452,84.146 158.731 C 89.987 152.126,90.124 151.932,89.869 150.572 C 89.725 149.807,89.618 128.872,89.631 104.051 L 89.655 58.922 90.608 56.849 C 91.824 54.204,94.267 51.750,97.041 50.388 L 99.220 49.318 110.720 49.189 C 127.654 48.998,130.863 50.054,134.055 56.862 L 135.088 59.064 135.088 79.304 C 135.088 93.637,135.212 99.586,135.515 99.687 C 135.750 99.766,138.119 97.344,140.778 94.305 C 143.438 91.266,147.368 86.819,149.513 84.423 C 151.657 82.028,154.990 78.248,156.920 76.023 C 158.850 73.799,161.306 70.992,162.378 69.787 C 166.033 65.677,170.172 60.980,172.515 58.284 C 173.801 56.803,175.731 54.617,176.803 53.427 C 177.875 52.237,180.415 49.334,182.446 46.976 C 184.478 44.619,186.240 42.602,186.361 42.495 C 186.482 42.388,190.511 37.827,195.314 32.359 C 200.117 26.891,204.935 21.452,206.021 20.273 C 207.107 19.094,208.434 17.560,208.969 16.865 C 210.228 15.229,210.943 15.268,212.490 17.057 M213.657 75.514 C 215.044 77.163,217.232 79.678,218.519 81.102 C 219.805 82.526,222.612 85.676,224.756 88.102 C 226.901 90.527,228.833 92.706,229.050 92.942 C 229.268 93.179,230.408 94.513,231.584 95.906 C 232.761 97.300,233.817 98.528,233.931 98.635 C 234.171 98.861,239.166 104.516,244.250 110.319 C 246.179 112.522,249.425 116.191,251.462 118.474 C 253.499 120.757,256.131 123.756,257.310 125.139 C 258.489 126.522,259.717 127.935,260.039 128.280 C 260.361 128.624,261.150 129.512,261.793 130.253 C 264.961 133.901,268.465 137.858,268.837 138.207 C 269.066 138.421,270.995 140.614,273.124 143.080 C 275.252 145.546,277.665 148.292,278.486 149.182 C 279.307 150.073,280.383 151.351,280.878 152.022 C 281.374 152.693,283.423 155.045,285.431 157.248 C 287.440 159.451,290.049 162.377,291.228 163.750 C 292.407 165.124,294.337 167.310,295.517 168.609 C 296.696 169.907,299.152 172.701,300.975 174.816 C 302.797 176.931,307.271 182.037,310.916 186.163 C 314.561 190.288,318.979 195.308,320.733 197.319 C 322.487 199.330,324.417 201.518,325.022 202.182 C 326.986 204.340,330.397 208.297,330.887 208.984 C 331.443 209.767,331.507 354.336,330.951 355.236 C 330.606 355.794,278.058 356.062,261.598 355.590 L 253.606 355.361 253.411 304.288 L 253.216 253.216 210.958 253.117 C 180.318 253.045,168.556 253.137,168.176 253.453 C 167.743 253.813,167.651 262.626,167.644 304.594 C 167.640 332.483,167.536 355.401,167.414 355.523 C 167.114 355.823,99.106 355.977,94.055 355.690 L 90.058 355.462 90.071 282.312 L 90.084 209.162 92.508 206.377 C 93.841 204.845,96.843 201.424,99.178 198.774 C 101.513 196.125,104.408 192.823,105.611 191.437 C 106.813 190.051,108.674 187.938,109.747 186.742 C 111.623 184.648,116.362 179.261,126.893 167.251 C 129.620 164.142,132.858 160.458,134.089 159.064 C 136.130 156.754,138.415 154.148,145.189 146.410 C 146.495 144.919,148.353 142.804,149.318 141.711 C 154.281 136.091,156.712 133.346,158.480 131.369 C 159.552 130.170,162.093 127.270,164.127 124.926 C 166.160 122.581,167.916 120.575,168.029 120.468 C 168.141 120.361,171.907 116.062,176.397 110.916 C 180.888 105.770,185.360 100.682,186.336 99.610 C 187.312 98.538,189.250 96.354,190.644 94.757 C 192.037 93.160,194.673 90.177,196.502 88.129 C 198.330 86.081,202.163 81.730,205.019 78.460 C 211.095 71.504,210.465 71.718,213.657 75.514 M169.368 171.277 C 169.259 171.561,169.221 173.447,169.283 175.468 L 169.396 179.142 176.608 179.337 L 183.821 179.532 183.922 199.769 C 183.994 214.188,184.150 220.160,184.466 220.541 C 184.807 220.952,186.003 221.050,189.628 220.967 L 194.347 220.858 194.448 200.620 C 194.519 186.466,194.679 180.226,194.983 179.860 C 195.317 179.458,197.058 179.337,202.536 179.337 C 209.590 179.337,209.658 179.329,209.891 178.460 C 210.195 177.326,210.195 172.772,209.891 171.637 L 209.656 170.760 189.611 170.760 C 173.330 170.760,169.529 170.857,169.368 171.277 M212.881 171.511 C 212.446 172.323,212.320 177.699,212.712 178.721 C 212.915 179.250,213.903 179.337,219.698 179.337 C 223.410 179.337,226.724 179.444,227.064 179.574 C 227.615 179.785,227.680 181.970,227.680 200.229 L 227.680 220.648 228.558 220.866 C 229.040 220.986,231.365 221.033,233.723 220.971 L 238.012 220.858 238.113 200.620 C 238.182 186.672,238.346 180.223,238.641 179.869 C 238.959 179.485,240.865 179.328,246.142 179.248 L 253.216 179.142 253.216 175.049 L 253.216 170.955 233.251 170.854 C 213.826 170.756,213.276 170.774,212.881 171.511 " stroke="none" fill="#eef3f2" fill-rule="evenodd"></path></g></svg>