<svg id="svg" version="1.1" xmlns="http://www.w3.org/2000/svg" xmlns:xlink="http://www.w3.org/1999/xlink" width="400" height="400" viewBox="0, 0, 400,400"><g id="svgg"><path id="path0" d="M124.121 62.785 L 47.949 117.936 47.931 120.833 C 47.921 122.427,47.850 132.454,47.774 143.115 L 47.635 162.500 52.165 162.500 C 55.857 162.500,56.735 162.448,56.912 162.221 C 57.178 161.879,98.693 131.831,98.780 131.918 C 98.814 131.952,98.828 146.735,98.811 164.769 C 98.721 260.853,98.747 317.924,98.879 318.359 C 98.988 318.717,104.040 322.470,117.776 332.396 C 133.179 343.527,136.523 346.024,136.523 346.389 C 136.523 346.863,136.854 347.070,137.610 347.070 C 138.029 347.070,192.922 386.543,194.915 388.278 C 195.288 388.602,195.662 388.867,195.748 388.867 C 195.966 388.867,198.675 390.816,198.983 391.194 C 199.121 391.365,199.410 391.514,199.624 391.526 C 199.837 391.539,199.968 391.505,199.915 391.451 C 199.756 391.292,203.174 388.939,203.780 388.791 C 204.087 388.716,204.379 388.504,204.429 388.321 C 204.501 388.058,260.850 347.062,261.306 346.941 C 261.372 346.923,261.671 346.855,261.970 346.789 C 262.287 346.719,262.584 346.483,262.683 346.224 C 262.837 345.818,298.759 319.608,299.896 319.072 C 300.644 318.719,300.586 327.436,300.865 174.545 C 300.907 151.146,300.986 131.956,301.040 131.903 C 301.094 131.849,310.572 138.635,322.102 146.983 C 333.632 155.331,343.329 162.238,343.651 162.331 C 343.973 162.424,346.236 162.500,348.680 162.500 L 353.125 162.500 353.140 160.010 C 353.195 150.716,353.326 133.549,353.394 126.548 C 353.475 118.282,353.473 118.231,353.067 117.978 C 352.842 117.838,319.089 93.423,278.060 63.723 C 193.472 2.491,200.564 7.615,200.410 7.625 C 200.346 7.630,166.016 32.451,124.121 62.785 M275.977 73.138 C 313.198 100.073,343.820 122.272,344.026 122.469 C 344.407 122.835,344.554 151.640,344.176 151.974 C 344.018 152.114,206.141 52.318,205.314 51.465 C 205.002 51.143,204.692 50.615,204.625 50.293 C 204.401 49.207,204.479 22.224,204.707 21.949 C 204.873 21.749,205.277 21.957,206.609 22.931 C 207.540 23.610,238.755 46.204,275.977 73.138 M195.863 36.760 C 195.819 44.464,195.743 50.804,195.694 50.849 C 195.627 50.911,108.541 113.953,99.707 120.334 C 98.740 121.033,88.701 128.301,77.397 136.486 C 66.093 144.671,56.785 151.367,56.714 151.367 C 56.346 151.367,56.781 122.624,57.153 122.267 C 59.020 120.473,195.809 21.892,195.872 22.295 C 195.911 22.547,195.907 29.057,195.863 36.760 M198.122 111.482 L 198.014 124.121 197.493 124.562 C 197.207 124.804,193.721 127.343,189.746 130.203 C 185.771 133.064,179.247 137.766,175.248 140.651 C 171.248 143.537,167.897 145.898,167.802 145.898 C 167.629 145.898,167.708 121.379,167.883 120.605 C 167.976 120.198,197.823 98.617,198.090 98.765 C 198.167 98.808,198.182 104.531,198.122 111.482 M217.195 109.769 C 226.646 116.549,232.061 120.552,232.117 120.801 C 232.334 121.758,232.369 145.898,232.154 145.896 C 232.033 145.895,228.857 143.672,225.098 140.958 C 215.638 134.127,203.780 125.590,202.787 124.895 L 201.961 124.316 201.957 111.654 C 201.954 102.932,202.017 99.012,202.157 99.059 C 202.270 99.096,209.037 103.916,217.195 109.769 M137.035 219.475 C 136.959 283.038,136.865 335.076,136.826 335.115 C 136.787 335.154,130.223 330.455,122.239 324.673 L 107.723 314.160 107.557 313.281 C 107.466 312.798,107.443 305.415,107.505 296.875 C 107.568 288.335,107.639 256.387,107.664 225.879 C 107.689 195.371,107.735 160.215,107.766 147.754 L 107.823 125.098 122.417 114.515 C 130.444 108.695,137.048 103.927,137.092 103.920 C 137.137 103.912,137.111 155.912,137.035 219.475 M277.618 114.624 L 292.052 125.069 291.924 145.201 C 291.853 156.273,291.774 190.161,291.747 220.508 C 291.721 250.854,291.676 284.314,291.648 294.862 L 291.598 314.040 277.195 324.462 C 269.274 330.194,262.669 334.960,262.517 335.051 C 262.280 335.195,262.260 327.463,262.373 279.572 C 262.445 248.967,262.518 197.471,262.534 165.137 C 262.566 104.586,262.571 103.809,262.957 104.041 C 263.082 104.116,269.679 108.878,277.618 114.624 M197.804 151.686 C 197.330 152.144,167.943 172.656,167.760 172.656 C 167.645 172.656,167.594 168.499,167.625 161.676 L 167.676 150.696 175.000 145.412 C 179.028 142.506,185.840 137.594,190.137 134.496 L 197.949 128.865 198.000 140.156 C 198.039 149.026,197.997 151.499,197.804 151.686 M210.938 135.330 C 215.181 138.387,221.641 143.036,225.293 145.663 C 228.945 148.289,232.043 150.576,232.178 150.745 C 232.516 151.169,232.536 172.656,232.199 172.656 C 232.076 172.656,225.223 167.932,216.970 162.158 L 201.964 151.660 201.958 140.270 L 201.953 128.880 202.588 129.326 C 202.937 129.571,206.694 132.273,210.938 135.330 M229.395 229.457 C 242.393 238.736,253.182 246.476,253.371 246.657 C 253.696 246.970,253.714 249.405,253.712 294.144 L 253.709 341.301 253.271 341.718 C 252.710 342.250,204.742 376.945,204.368 377.088 C 204.104 377.189,204.146 212.794,204.410 211.949 C 204.470 211.757,204.653 211.805,205.126 212.138 C 205.476 212.384,216.396 220.177,229.395 229.457 M195.703 235.107 C 195.703 285.470,195.434 377.547,195.288 377.496 C 195.202 377.466,183.964 369.358,170.315 359.478 L 145.498 341.514 145.552 303.618 C 145.581 282.776,145.649 261.596,145.703 256.552 L 145.801 247.381 170.605 229.651 C 184.248 219.900,195.476 211.920,195.557 211.918 C 195.637 211.916,195.703 222.351,195.703 235.107 M214.477 293.352 C 206.720 297.093,208.973 308.301,217.480 308.301 C 224.648 308.301,227.886 299.630,222.543 294.746 C 220.410 292.797,216.888 292.188,214.477 293.352 M179.516 293.742 C 171.760 297.484,174.012 308.691,182.520 308.691 C 189.687 308.691,192.925 300.020,187.582 295.137 C 185.449 293.188,181.927 292.579,179.516 293.742 " stroke="none" fill="#050505" fill-rule="evenodd"></path><path id="path1" d="M204.707 21.949 C 204.562 22.124,204.495 26.447,204.490 36.011 L 204.482 49.820 205.032 50.827 C 205.590 51.848,343.795 152.311,344.176 151.974 C 344.554 151.639,344.407 122.835,344.026 122.469 C 343.820 122.272,313.198 100.073,275.977 73.138 C 238.755 46.204,207.540 23.610,206.609 22.931 C 205.277 21.957,204.873 21.749,204.707 21.949 M126.660 71.876 C 88.633 99.397,57.355 122.073,57.153 122.267 C 56.781 122.624,56.346 151.367,56.714 151.367 C 56.785 151.367,66.093 144.671,77.397 136.486 C 88.701 128.301,98.740 121.033,99.707 120.334 C 108.541 113.953,195.627 50.911,195.694 50.849 C 195.801 50.750,195.973 22.953,195.872 22.295 C 195.808 21.885,188.526 27.101,126.660 71.876 M182.960 109.451 C 173.422 116.301,167.939 120.357,167.883 120.605 C 167.708 121.379,167.629 145.898,167.802 145.898 C 167.897 145.898,171.248 143.537,175.248 140.651 C 179.247 137.766,185.771 133.064,189.746 130.203 C 193.721 127.343,197.207 124.804,197.493 124.562 L 198.014 124.121 198.122 111.482 C 198.182 104.531,198.167 98.808,198.090 98.765 C 198.012 98.722,191.204 103.531,182.960 109.451 M201.957 111.654 L 201.961 124.316 202.787 124.895 C 203.780 125.590,215.638 134.127,225.098 140.958 C 228.857 143.672,232.033 145.895,232.154 145.896 C 232.369 145.898,232.334 121.758,232.117 120.801 C 232.042 120.470,202.862 99.294,202.157 99.059 C 202.017 99.012,201.954 102.932,201.957 111.654 M122.417 114.515 L 107.823 125.098 107.766 147.754 C 107.735 160.215,107.689 195.371,107.664 225.879 C 107.639 256.387,107.568 288.335,107.505 296.875 C 107.443 305.415,107.466 312.798,107.557 313.281 L 107.723 314.160 122.239 324.673 C 130.223 330.455,136.787 335.154,136.826 335.115 C 136.925 335.015,137.191 103.903,137.092 103.920 C 137.048 103.927,130.444 108.695,122.417 114.515 M262.647 105.126 C 262.602 105.798,262.551 132.803,262.534 165.137 C 262.518 197.471,262.445 248.967,262.373 279.572 C 262.260 327.463,262.280 335.195,262.517 335.051 C 262.669 334.960,269.274 330.194,277.195 324.462 L 291.598 314.040 291.648 294.862 C 291.676 284.314,291.721 250.854,291.747 220.508 C 291.774 190.161,291.853 156.273,291.924 145.201 L 292.052 125.069 277.618 114.624 C 269.679 108.878,263.082 104.116,262.957 104.041 C 262.797 103.945,262.706 104.267,262.647 105.126 M190.137 134.496 C 185.840 137.594,179.028 142.506,175.000 145.412 L 167.676 150.696 167.625 161.676 C 167.594 168.499,167.645 172.656,167.760 172.656 C 167.943 172.656,197.330 152.144,197.804 151.686 C 197.997 151.499,198.039 149.026,198.000 140.156 L 197.949 128.865 190.137 134.496 M201.958 140.270 L 201.964 151.660 216.970 162.158 C 225.223 167.932,232.076 172.656,232.199 172.656 C 232.536 172.656,232.516 151.169,232.178 150.745 C 232.043 150.576,228.945 148.289,225.293 145.663 C 221.641 143.036,215.181 138.387,210.938 135.330 C 206.694 132.273,202.937 129.571,202.588 129.326 L 201.953 128.880 201.958 140.270 M204.410 211.949 C 204.146 212.794,204.104 377.189,204.368 377.088 C 204.742 376.945,252.710 342.250,253.271 341.718 L 253.709 341.301 253.712 294.144 C 253.714 249.405,253.696 246.970,253.371 246.657 C 253.121 246.418,210.111 215.644,205.126 212.138 C 204.653 211.805,204.470 211.757,204.410 211.949 M170.605 229.651 L 145.801 247.381 145.703 256.552 C 145.649 261.596,145.581 282.776,145.552 303.618 L 145.498 341.514 170.315 359.478 C 183.964 369.358,195.202 377.466,195.288 377.496 C 195.373 377.526,195.501 350.719,195.573 317.925 C 195.742 240.545,195.737 211.913,195.557 211.918 C 195.476 211.920,184.248 219.900,170.605 229.651 M220.361 293.344 C 225.305 295.255,226.765 301.915,223.107 305.866 C 218.433 310.914,210.164 307.930,209.803 301.065 C 209.495 295.187,214.901 291.233,220.361 293.344 M185.400 293.734 C 190.344 295.646,191.804 302.306,188.146 306.257 C 183.472 311.305,175.203 308.321,174.842 301.456 C 174.534 295.577,179.940 291.623,185.400 293.734 " stroke="none" fill="#fbfbfb" fill-rule="evenodd"></path></g></svg>